<svg width="106" height="62" viewBox="0 0 106 62" fill="none" xmlns="http://www.w3.org/2000/svg">
<path opacity="0.09" d="M102.161 29.2891C102.161 27.8203 100.707 25.0758 98.9135 25.0758C97.1194 25.0758 95.6655 27.8203 95.6655 29.2891C95.6665 29.6125 95.7365 29.931 95.8696 30.2181C95.7463 30.5611 95.6772 30.9254 95.6655 31.2948C95.6655 32.6268 96.984 33.7087 98.6087 33.7087C100.233 33.7087 101.552 32.6283 101.552 31.2948C101.551 31.1542 101.539 31.0139 101.515 30.8757C101.923 30.4331 102.161 29.8838 102.161 29.2891Z" fill="#162126"/>
<g opacity="0.4">
<path d="M85.5069 28.7589C83.9588 26.029 81.5414 24.6736 79.1627 24.3898C76.7839 24.1059 74.3947 24.784 72.0558 25.5155C68.9361 26.4884 65.2734 27.3654 62.9189 24.1396C61.5284 22.2304 60.9738 19.1019 61.4715 16.375C61.8253 14.4351 62.6631 12.6554 62.6488 10.6438C62.6337 8.5584 61.6618 6.69387 60.4603 5.64273C59.2589 4.5916 57.8527 4.21928 56.4707 3.9479C53.3829 3.34004 50.1978 3.16083 47.1898 4.33924C44.3441 0.904225 40.3381 -0.253703 36.8448 1.36725C35.5256 1.9795 34.2332 3.02697 33.47 4.75253C32.5471 6.8387 32.5471 9.51664 32.5792 12.0198C32.6136 14.7165 32.648 17.4132 32.6825 20.1099C32.7093 22.188 32.7296 24.3247 32.2449 26.2726C30.7007 32.4901 25.0871 33.8112 22.3172 38.9813C21.1458 41.1691 20.5474 43.9977 20.5709 46.8015C20.5839 48.8166 20.916 50.8132 21.552 52.6987C23.4912 58.3588 28.0015 61.2248 32.2443 61.1384C36.4871 61.0521 40.5277 58.5051 44.3316 55.6831C47.2094 53.5486 50.2148 51.164 53.4143 51.5012C56.678 51.845 59.4701 54.9443 62.4231 57.0561C67.2303 60.494 72.8302 61.3718 78.0076 59.4999C80.2968 58.6719 82.5643 57.2645 84.24 54.7797C86.7986 50.987 87.6155 45.253 87.6247 39.8576C87.6312 35.9244 87.2048 31.7528 85.5069 28.7589Z" fill="url(#paint0_linear_8_175)"/>
</g>
<path d="M94.8034 51.7024C94.8034 50.519 94.3831 49.384 93.6349 48.5473C92.8867 47.7105 91.8719 47.2404 90.8138 47.2404C89.7557 47.2404 88.7409 47.7105 87.9927 48.5473C87.2445 49.384 86.8241 50.519 86.8241 51.7024H94.8034Z" fill="#87BAFB"/>
<path opacity="0.1" d="M90.1598 47.2989C91.1384 47.4087 92.0464 47.9189 92.7092 48.7317C93.3721 49.5444 93.7431 50.6024 93.7511 51.7024H94.7976C94.7976 50.519 94.3772 49.3841 93.629 48.5473C92.8808 47.7105 91.866 47.2404 90.8079 47.2404C90.5908 47.2398 90.374 47.2594 90.1598 47.2989Z" fill="#162126"/>
<path opacity="0.2" d="M83.153 19.6447V22.7359H89.8654V20.1933H92.0892V17.1035H85.3741V19.6454L83.153 19.6447ZM91.5712 19.6161H85.8908V17.6807H91.5712V19.6161ZM83.6697 20.2225H89.3501V22.158H83.6697V20.2225Z" fill="#9EBAB7"/>
<path opacity="0.2" d="M15.0672 25.9353V29.0265H21.7796V26.4839H24.0034V23.3942H17.2883V25.936L15.0672 25.9353ZM23.4853 25.9068H17.805V23.9713H23.4853V25.9068ZM15.5839 26.5132H21.2642V28.4487H15.5839V26.5132Z" fill="#9EBAB7"/>
<path d="M19.7848 48.7764H18.7056V47.3134H19.7848C20.0536 47.3134 20.3115 47.194 20.5016 46.9813C20.6917 46.7687 20.7985 46.4803 20.7985 46.1796C20.7985 45.8789 20.6917 45.5905 20.5016 45.3779C20.3115 45.1653 20.0536 45.0458 19.7848 45.0458H19.7521V43.5829H19.7848C20.4006 43.5829 20.9911 43.8565 21.4266 44.3435C21.862 44.8304 22.1066 45.4909 22.1066 46.1796C22.1066 46.8683 21.862 47.5288 21.4266 48.0158C20.9911 48.5028 20.4006 48.7764 19.7848 48.7764Z" fill="#F5C924"/>
<path d="M12.5354 41.3885H19.7789C19.8183 41.3885 19.8574 41.3972 19.8938 41.4141C19.9302 41.431 19.9633 41.4557 19.9912 41.4869C20.0191 41.5181 20.0412 41.5551 20.0563 41.5958C20.0713 41.6365 20.0791 41.6802 20.0791 41.7243V50.0997C20.0792 50.3101 20.0422 50.5185 19.9703 50.713C19.8983 50.9074 19.7928 51.0841 19.6598 51.2329C19.5268 51.3818 19.3689 51.4998 19.195 51.5804C19.0212 51.6609 18.8349 51.7024 18.6468 51.7024H13.6695C13.2896 51.7024 12.9253 51.5336 12.6567 51.2332C12.388 50.9328 12.2371 50.5253 12.2371 50.1004V41.7236C12.2371 41.6795 12.2449 41.6358 12.26 41.5951C12.2751 41.5543 12.2972 41.5173 12.3251 41.4862C12.3529 41.455 12.386 41.4303 12.4225 41.4134C12.4589 41.3965 12.4979 41.3878 12.5373 41.3878L12.5354 41.3885Z" fill="#F5C924"/>
<path opacity="0.4" d="M20.0791 48.7479V50.0646C20.0791 51.2525 19.2177 51.777 18.1556 51.777L13.7009 51.7038C12.8539 51.7038 12.2718 51.3381 12.2718 50.2409C13.0809 50.3323 17.2013 51.7024 20.0791 48.7479Z" fill="#F59B3D"/>
<path opacity="0.2" d="M20.0791 41.7236C20.0788 41.6346 20.0469 41.5494 19.9905 41.4866C19.9341 41.4238 19.8578 41.3885 19.7782 41.3885H12.5347C12.4953 41.3885 12.4563 41.3972 12.4198 41.4141C12.3834 41.431 12.3503 41.4557 12.3224 41.4869C12.2946 41.5181 12.2725 41.5551 12.2574 41.5958C12.2423 41.6365 12.2345 41.6802 12.2345 41.7243V42.4126H13.122C13.0244 42.5185 12.9678 42.6629 12.9644 42.8149C12.9644 43.2216 13.3967 43.5515 13.9304 43.5515C14.4641 43.5515 14.8965 43.2216 14.8965 42.8149C14.893 42.6629 14.8364 42.5185 14.7388 42.4126H20.0791V41.7236Z" fill="white"/>
<path opacity="0.2" d="M14.6232 44.2788C14.8546 44.1814 14.9941 43.9593 14.9346 43.7827C14.8752 43.6061 14.6394 43.5419 14.408 43.6393C14.1765 43.7367 14.0371 43.9588 14.0965 44.1355C14.1559 44.3121 14.3917 44.3763 14.6232 44.2788Z" fill="white"/>
<path opacity="0.5" d="M5.36315 46.1657C5.34811 46.1401 3.83008 43.5558 3.24079 39.9028C2.8948 37.7567 2.93142 35.6669 3.35066 33.6911C3.8739 31.2217 5.00016 28.9256 6.69609 26.8657L6.74449 26.9155C5.05575 28.9636 3.93603 31.2509 3.41476 33.708C2.99814 35.6734 2.96151 37.7538 3.30619 39.8897C3.89483 43.528 5.4037 46.0999 5.41875 46.1255L5.36315 46.1657Z" fill="#9FA1D1"/>
<path opacity="0.5" d="M4.77451 46.1657C4.75947 46.1401 3.24144 43.5558 2.65215 39.9028C2.30616 37.7567 2.34278 35.6669 2.76203 33.6911C3.28526 31.2217 4.41152 28.9256 6.10745 26.8657L6.15585 26.9155C4.46711 28.9636 3.34739 31.2509 2.82612 33.708C2.4095 35.6734 2.37287 37.7538 2.71755 39.8897C3.30619 43.528 4.81507 46.0999 4.83011 46.1255L4.77451 46.1657Z" fill="#9FA1D1"/>
<path opacity="0.5" d="M5.88639 24.272L5.82098 24.2551C5.82752 24.2251 6.47895 21.2202 8.46201 18.2439C9.62686 16.4956 11.0174 15.0985 12.5936 14.0913C14.5642 12.8324 16.8324 12.1836 19.3361 12.1631V12.2362C16.8449 12.2567 14.5871 12.9026 12.627 14.1542C11.0572 15.1556 9.67526 16.5461 8.51564 18.2855C6.54043 21.2495 5.89097 24.242 5.88639 24.272Z" fill="#9FA1D1"/>
<path opacity="0.5" d="M6.54043 25.0034L6.47502 24.9866C6.48156 24.9566 7.13299 21.9517 9.11605 18.9753C10.2809 17.2271 11.6714 15.8299 13.2476 14.8227C15.2183 13.5638 17.4865 12.915 19.9902 12.8945V12.9677C17.4989 12.9882 15.2412 13.6341 13.281 14.8856C11.7113 15.887 10.3293 17.2775 9.16968 19.017C7.19447 21.9809 6.545 24.9734 6.54043 25.0034Z" fill="#9FA1D1"/>
<path d="M6.63723 25.8168H5.5574V47.7516H6.63723V25.8168Z" fill="#ECF3F2"/>
<path d="M7.7177 25.8168H6.63788V47.7516H7.7177V25.8168Z" fill="#9EBAB7"/>
<path d="M21.5985 13.5603L20.9005 12.4991L5.10212 25.4972L5.80013 26.5584L21.5985 13.5603Z" fill="#ECF3F2"/>
<path d="M22.2229 14.6718L21.5279 13.6047L5.64154 26.5463L6.33651 27.6134L22.2229 14.6718Z" fill="#9EBAB7"/>
<path d="M6.66992 28.7413C7.93346 28.7413 8.95776 27.5957 8.95776 26.1826C8.95776 24.7695 7.93346 23.6239 6.66992 23.6239C5.40638 23.6239 4.38208 24.7695 4.38208 26.1826C4.38208 27.5957 5.40638 28.7413 6.66992 28.7413Z" fill="url(#paint1_linear_8_175)"/>
<path opacity="0.2" d="M8.96038 26.1826C8.95998 26.7107 8.81361 27.2256 8.54131 27.657C8.26901 28.0884 7.88411 28.415 7.43935 28.5922C6.99458 28.7694 6.51171 28.7884 6.05689 28.6467C5.60207 28.505 5.19756 28.2095 4.89877 27.8006C5.3386 28.1977 5.89421 28.3987 6.45862 28.3649C7.02302 28.3312 7.55632 28.0652 7.95583 27.618C8.35533 27.1708 8.59279 26.5742 8.62248 25.9429C8.65218 25.3117 8.47201 24.6904 8.11666 24.1989C8.38039 24.4385 8.59298 24.7409 8.73894 25.0841C8.8849 25.4273 8.96055 25.8026 8.96038 26.1826Z" fill="#6AB7CC"/>
<path d="M16.9909 9.38849L18.2179 7.31435C18.8705 6.21125 19.8882 5.44326 21.0471 5.17934C22.2059 4.91541 23.4111 5.17716 24.3974 5.90701L30.2071 10.206C30.4466 10.3832 30.6132 10.6594 30.6705 10.974C30.7278 11.2887 30.671 11.6158 30.5126 11.8836L25.5589 20.257C25.4005 20.5248 25.1535 20.7112 24.8722 20.7753C24.5909 20.8393 24.2983 20.7758 24.0589 20.5986L18.2492 16.2996C17.2629 15.5698 16.5762 14.4316 16.3402 13.1355C16.1042 11.8394 16.3383 10.4916 16.9909 9.38849Z" fill="url(#paint2_linear_8_175)"/>
<path opacity="0.2" d="M30.5137 11.8822L25.5593 20.2569C25.4008 20.5246 25.1537 20.711 24.8724 20.775C24.591 20.8391 24.2985 20.7756 24.059 20.5985L19.775 17.4283C19.775 17.4283 26.2271 20.322 29.6556 9.79602L30.2083 10.2049C30.4476 10.3821 30.6142 10.6583 30.6715 10.9728C30.7288 11.2874 30.672 11.6145 30.5137 11.8822Z" fill="#6AB7CC"/>
<path d="M6.80204 45.7773C7.4612 45.7773 8.09336 46.0702 8.55946 46.5915C9.02555 47.1128 9.2874 47.8198 9.2874 48.557V48.7764H4.31668V48.557C4.31668 47.8198 4.57853 47.1128 5.04463 46.5915C5.51072 46.0702 6.14288 45.7773 6.80204 45.7773Z" fill="url(#paint3_linear_8_175)"/>
<path opacity="0.2" d="M9.2874 48.557V48.7764H8.69876V48.557C8.69872 47.8768 8.47569 47.2203 8.07191 46.7116C7.66812 46.203 7.1116 45.8776 6.50772 45.7971C6.60538 45.7838 6.70367 45.7773 6.80204 45.7773C7.4612 45.7773 8.09336 46.0702 8.55946 46.5915C9.02555 47.1128 9.2874 47.8198 9.2874 48.557Z" fill="#6AB7CC"/>
<path opacity="0.25" d="M6.35668 47.8501C6.66846 47.3659 6.68193 46.7806 6.38676 46.5429C6.09159 46.3052 5.59955 46.5049 5.28777 46.9891C4.97599 47.4733 4.96252 48.0586 5.25769 48.2963C5.55286 48.534 6.04489 48.3343 6.35668 47.8501Z" fill="white"/>
<path opacity="0.25" d="M7.65401 47.4815C7.77845 47.2405 7.76013 46.9681 7.61311 46.8732C7.46608 46.7782 7.24601 46.8967 7.12157 47.1378C6.99713 47.3788 7.01545 47.6512 7.16247 47.7461C7.3095 47.8411 7.52957 47.7226 7.65401 47.4815Z" fill="white"/>
<path opacity="0.25" d="M23.1423 9.2642C23.2624 9.12984 23.2171 8.86124 23.0409 8.66426C22.8648 8.46729 22.6246 8.41653 22.5045 8.5509C22.3844 8.68526 22.4297 8.95387 22.6059 9.15084C22.782 9.34781 23.0222 9.39857 23.1423 9.2642Z" fill="white"/>
<path d="M2.74698 48.7032H10.8571C11.5336 48.7032 12.1824 49.0038 12.6608 49.5388C13.1391 50.0738 13.4079 50.7994 13.4079 51.556H0.196213C0.196213 50.7994 0.464953 50.0738 0.943315 49.5388C1.42168 49.0038 2.07047 48.7032 2.74698 48.7032Z" fill="url(#paint4_linear_8_175)"/>
<g opacity="0.25">
<path d="M9.88389 49.5079H0.971252C1.44669 48.9909 2.08389 48.7022 2.74698 48.7032H10.4274V48.7106C10.4505 48.8041 10.4539 48.9024 10.4374 48.9977C10.4209 49.093 10.385 49.1827 10.3324 49.2599C10.2798 49.3371 10.2119 49.3996 10.1341 49.4427C10.0563 49.4857 9.97067 49.508 9.88389 49.5079Z" fill="white"/>
</g>
<path opacity="0.25" d="M21.9418 6.40421C21.6845 6.10395 21.3489 5.90223 20.983 5.82781L21.4408 5.1095C20.7924 5.19026 20.1679 5.42956 19.6114 5.81044C19.055 6.19132 18.5803 6.70445 18.221 7.31344L16.9933 9.38864C16.6676 9.93683 16.4425 10.552 16.3311 11.1983C16.2197 11.8446 16.2243 12.5092 16.3445 13.1535L20.1327 7.1686C20.2302 7.45447 20.3817 7.71345 20.5768 7.92788C21.1295 8.54598 21.8849 8.70544 22.2603 8.28411C22.6358 7.86278 22.4951 7.02231 21.9418 6.40421Z" fill="white"/>
<path opacity="0.26" d="M52.258 56.3275C69.0546 56.3275 82.671 55.4102 82.671 54.2786C82.671 53.147 69.0546 52.2297 52.258 52.2297C35.4614 52.2297 21.845 53.147 21.845 54.2786C21.845 55.4102 35.4614 56.3275 52.258 56.3275Z" fill="#162126"/>
<path d="M76.2286 48.282H29.2684V15.6274C29.2684 15.4658 29.3258 15.3108 29.428 15.1965C29.5301 15.0823 29.6687 15.0181 29.8132 15.0181H75.6845C75.829 15.0181 75.9676 15.0823 76.0697 15.1965C76.1719 15.3108 76.2293 15.4658 76.2293 15.6274L76.2286 48.282Z" fill="#64585C"/>
<path d="M74.2201 17.4824H31.343V46.3575H74.2201V17.4824Z" fill="#9ED2A7"/>
<path d="M74.0049 45.9595H31.4804V46.2777H74.0049V45.9595Z" fill="#537D6F"/>
<path d="M73.967 17.7976H31.4424V18.0897H73.967V17.7976Z" fill="#537D6F"/>
<path d="M74.2659 17.1393H31.2318V17.7246H74.2659V17.1393Z" fill="#5B4C52"/>
<path d="M73.7459 47.13H31.7564C31.6176 47.13 31.4845 47.0683 31.3864 46.9586C31.2883 46.8488 31.2331 46.6999 31.2331 46.5447H74.2691C74.2691 46.6999 74.214 46.8488 74.1159 46.9586C74.0178 47.0683 73.8847 47.13 73.7459 47.13Z" fill="#756B6F"/>
<path d="M74.0036 17.7976V46.2521H31.4908V17.7976H74.0036ZM74.2652 17.505H31.2292V46.5446H74.2652V17.505Z" fill="#2F3446"/>
<path d="M52.7485 16.6272C52.9291 16.6272 53.0755 16.4635 53.0755 16.2615C53.0755 16.0595 52.9291 15.8958 52.7485 15.8958C52.5679 15.8958 52.4215 16.0595 52.4215 16.2615C52.4215 16.4635 52.5679 16.6272 52.7485 16.6272Z" fill="#2F3446"/>
<path d="M53.468 16.444C53.5583 16.444 53.6315 16.3622 53.6315 16.2613C53.6315 16.1605 53.5583 16.0787 53.468 16.0787C53.3777 16.0787 53.3045 16.1605 53.3045 16.2613C53.3045 16.3622 53.3777 16.444 53.468 16.444Z" fill="#BD6965"/>
<path d="M52.7485 16.444C52.8388 16.444 52.912 16.3622 52.912 16.2613C52.912 16.1605 52.8388 16.0787 52.7485 16.0787C52.6582 16.0787 52.585 16.1605 52.585 16.2613C52.585 16.3622 52.6582 16.444 52.7485 16.444Z" fill="#1D2230"/>
<path d="M47.6797 20.4719H37.0842V31.6635H47.6797V20.4719Z" fill="#537D6F"/>
<path d="M68.4782 36.345H48.9224V43.3671H68.4782V36.345Z" fill="#537D6F"/>
<path d="M68.4782 28.4084H48.9224V35.4306H68.4782V28.4084Z" fill="#BFFAC4"/>
<path d="M68.4782 20.4719H48.9224V27.4941H68.4782V20.4719Z" fill="#537D6F"/>
<path d="M47.6797 32.907H37.0842V43.3671H47.6797V32.907Z" fill="#BFFAC4"/>
<path d="M26.6738 48.2271H24.9648C24.5998 48.2271 24.3323 48.573 24.4089 48.9388C24.7274 50.4551 26.044 51.5918 27.6196 51.5918H78.1711C79.7467 51.5918 81.0633 50.4551 81.3818 48.9388C81.4584 48.573 81.1909 48.2271 80.8259 48.2271H80.081" fill="#5B4C52"/>
<g opacity="0.5">
<path d="M81.3825 48.9388C81.064 50.4552 79.7474 51.5919 78.1718 51.5919H27.6196C26.044 51.5919 24.7274 50.4552 24.4089 48.9388C24.3912 48.8541 24.3917 48.766 24.4103 48.6816C24.429 48.5971 24.4652 48.5189 24.5161 48.4531C24.9615 49.7698 26.1826 50.7141 27.6196 50.7141H78.1718C79.6107 50.7141 80.8298 49.7691 81.2753 48.4531C81.3261 48.5189 81.3624 48.5971 81.381 48.6816C81.3997 48.766 81.4002 48.8541 81.3825 48.9388Z" fill="#4C3941"/>
</g>
<path d="M57.9645 49.5437H47.8269C47.5146 49.5437 47.2152 49.405 46.9944 49.1581C46.7736 48.9111 46.6496 48.5763 46.6496 48.2271H59.1418C59.1418 48.5763 59.0177 48.9111 58.797 49.1581C58.5762 49.405 58.2767 49.5437 57.9645 49.5437Z" fill="#4C3941"/>
<path d="M59.1581 48.2271C59.1581 48.5763 59.0341 48.9111 58.8133 49.1581C58.5925 49.405 58.2931 49.5437 57.9809 49.5437H47.8432C47.6453 49.544 47.4505 49.4882 47.2771 49.3817C47.1036 49.2752 46.957 49.1213 46.851 48.9344C47.0396 49.0701 47.2592 49.1423 47.4835 49.1421H57.6211C57.8705 49.1421 58.1134 49.0536 58.3149 48.8893C58.5164 48.725 58.666 48.4933 58.7422 48.2278L59.1581 48.2271Z" fill="#423038"/>
<g opacity="0.15">
<path d="M76.2286 22.6254H70.9309V30.0133H76.2286V22.6254Z" fill="#020202"/>
</g>
<path d="M79.8259 21.7477H70.9309V29.1356H79.8259V21.7477Z" fill="#F7F2E1"/>
<path d="M79.8259 29.1351H70.9309V28.8795H79.597H79.8259" fill="#E6E2BD"/>
<path d="M77.2097 23.2106H72.1082V23.6488H77.2097V23.2106Z" fill="#64585C"/>
<path d="M74.9206 24.326H72.1082V24.7643H74.9206V24.326Z" fill="#64585C"/>
<path d="M74.9206 26.5571H72.1082V26.9954H74.9206V26.5571Z" fill="#64585C"/>
<path d="M74.9206 27.6726H72.1082V28.1109H74.9206V27.6726Z" fill="#64585C"/>
<path d="M78.3216 25.4415H72.1082V25.8798H78.3216V25.4415Z" fill="#64585C"/>
<path d="M67.3991 29.4281H50.0669V29.941H67.3991V29.4281Z" fill="#537D6F"/>
<path d="M67.3991 30.4281H50.0669V30.941H67.3991V30.4281Z" fill="#537D6F"/>
<path d="M67.3991 31.4272H50.0669V31.9401H67.3991V31.4272Z" fill="#537D6F"/>
<path d="M67.3991 32.4272H50.0669V32.9401H67.3991V32.4272Z" fill="#537D6F"/>
<g opacity="0.15">
<path d="M34.5661 27.6726H29.2684V35.0605H34.5661V27.6726Z" fill="#020202"/>
</g>
<path d="M34.5662 26.7948H25.6712V34.1827H34.5662V26.7948Z" fill="#F7F2E1"/>
<path d="M34.5662 34.1824H25.6712V33.9268H34.3372H34.5662" fill="#E6E2BD"/>
<path d="M31.95 28.2578H26.8484V28.6961H31.95V28.2578Z" fill="#64585C"/>
<path d="M29.6608 29.3733H26.8484V29.8116H29.6608V29.3733Z" fill="#64585C"/>
<path d="M29.6608 31.6042H26.8484V32.0425H29.6608V31.6042Z" fill="#64585C"/>
<path d="M29.6608 32.7197H26.8484V33.158H29.6608V32.7197Z" fill="#64585C"/>
<path d="M33.0619 30.4888H26.8484V30.927H33.0619V30.4888Z" fill="#64585C"/>
<path d="M100.853 54.994H5.29774C3.45531 54.994 1.96213 54.6406 1.96213 52.5801H104.189C104.189 54.6399 102.696 54.994 100.853 54.994Z" fill="#E7A56B"/>
<path opacity="0.7" d="M1.96213 52.8727H104.189C104.189 53.2413 104.058 53.5948 103.825 53.8554C103.592 54.1161 103.276 54.2625 102.946 54.2625H3.20481C2.87523 54.2625 2.55915 54.1161 2.3261 53.8554C2.09305 53.5948 1.96213 53.2413 1.96213 52.8727Z" fill="#C8935F"/>
<path d="M105.366 51.5553H0.588638C0.263542 51.5553 0 51.85 0 52.2136C0 52.5772 0.263542 52.872 0.588638 52.872H105.366C105.691 52.872 105.955 52.5772 105.955 52.2136C105.955 51.85 105.691 51.5553 105.366 51.5553Z" fill="#E7A56B"/>
<path d="M106 52.5114C105.92 52.7176 105.608 52.872 105.235 52.872H0.719442C0.287774 52.872 0.0653992 52.6628 0.0653992 52.4075V52.0205C0.0653992 51.8011 0.327016 51.6153 0.674313 51.5677C0.661203 51.6004 0.654299 51.6358 0.654037 51.6716V52.0586C0.654037 52.3139 1.00722 52.5231 1.43889 52.5231H105.824C105.883 52.5232 105.942 52.5192 106 52.5114Z" fill="#C8935F"/>
<path d="M6.37234 51.9689C7.40929 52.084 8.45075 52.1404 9.49278 52.1382C9.89305 52.1382 10.2175 52.1316 10.4411 52.1286C10.6648 52.1257 10.7897 52.1286 10.7904 52.1411C10.791 52.1536 10.6681 52.1755 10.4444 52.2012C10.2207 52.2268 9.89632 52.2532 9.49474 52.2701C8.44715 52.3116 7.39825 52.2732 6.35533 52.155L5.4678 52.0517C5.18067 52.0143 4.90532 51.9909 4.64174 51.9784C4.11458 51.9462 3.6391 51.9455 3.23948 51.9579C2.44024 51.9843 1.94709 52.0502 1.94382 52.0209C1.94382 52.0092 2.06351 51.9762 2.28588 51.9381C2.50826 51.9 2.83135 51.8546 3.23359 51.826C3.70453 51.7921 4.17673 51.7855 4.64828 51.8063C4.91448 51.818 5.19441 51.8378 5.48153 51.8729L6.37234 51.9689Z" fill="#C8935F"/>
<path d="M16.1176 51.9689C17.1545 52.084 18.196 52.1404 19.238 52.1382C19.6383 52.1382 19.9627 52.1316 20.1864 52.1286C20.41 52.1257 20.535 52.1286 20.5356 52.1411C20.5363 52.1536 20.4133 52.1755 20.1896 52.2012C19.9659 52.2268 19.6415 52.2532 19.24 52.2701C18.1924 52.3116 17.1435 52.2732 16.1006 52.155L15.213 52.051C14.9259 52.0136 14.6505 51.9902 14.387 51.9777C13.8598 51.9455 13.3843 51.9447 12.9847 51.9572C12.1855 51.9836 11.6923 52.0495 11.689 52.0202C11.689 52.0085 11.8087 51.9755 12.0311 51.9374C12.2535 51.8993 12.5766 51.8539 12.9788 51.8253C13.4498 51.7914 13.922 51.7847 14.3935 51.8055C14.6597 51.8173 14.9396 51.837 15.2268 51.8722L16.1176 51.9689Z" fill="#C8935F"/>
<path d="M38.6166 51.9689C39.6536 52.084 40.6951 52.1404 41.7371 52.1382C42.1373 52.1382 42.4618 52.1316 42.6854 52.1286C42.9091 52.1257 43.034 52.1286 43.0347 52.1411C43.0353 52.1536 42.9124 52.1755 42.6887 52.2012C42.465 52.2268 42.1406 52.2532 41.739 52.2701C40.6914 52.3116 39.6425 52.2732 38.5996 52.155L37.7121 52.051C37.425 52.0136 37.1496 51.9902 36.886 51.9777C36.3589 51.9455 35.8834 51.9447 35.4838 51.9572C34.6845 51.9836 34.1914 52.0495 34.1881 52.0202C34.1881 52.0085 34.3078 51.9755 34.5302 51.9374C34.7526 51.8993 35.0756 51.8539 35.4779 51.8253C35.9488 51.7914 36.421 51.7847 36.8926 51.8055C37.1588 51.8173 37.4387 51.837 37.7258 51.8722L38.6166 51.9689Z" fill="#C8935F"/>
<path d="M60.7887 51.9689C61.8256 52.084 62.8671 52.1404 63.9091 52.1382C64.3094 52.1382 64.6338 52.1316 64.8575 52.1286C65.0812 52.1257 65.2061 52.1286 65.2067 52.1411C65.2074 52.1536 65.0844 52.1755 64.8607 52.2012C64.6371 52.2268 64.3126 52.2532 63.9111 52.2701C62.8635 52.3116 61.8146 52.2732 60.7717 52.155L59.8841 52.051C59.597 52.0136 59.3217 51.9902 59.0581 51.9777C58.5309 51.9455 58.0554 51.9447 57.6558 51.9572C56.8566 51.9836 56.3634 52.0495 56.3601 52.0202C56.3601 52.0085 56.4798 51.9755 56.7022 51.9374C56.9246 51.8993 57.2477 51.8539 57.6499 51.8253C58.1209 51.7914 58.5931 51.7847 59.0646 51.8055C59.3308 51.8173 59.6107 51.837 59.8979 51.8722L60.7887 51.9689Z" fill="#C8935F"/>
<path d="M67.1348 52.2071C67.7493 52.3419 68.3695 52.442 68.993 52.5071C69.2324 52.5327 69.4266 52.5495 69.5607 52.5619C69.6311 52.5625 69.7011 52.5726 69.7693 52.5919C69.7002 52.6066 69.6296 52.6113 69.5594 52.6058C69.424 52.6058 69.2291 52.6015 68.9877 52.5861C68.359 52.544 67.7336 52.454 67.1159 52.3168L66.5926 52.1983C66.4232 52.1573 66.2597 52.1251 66.1028 52.0995C65.7895 52.0469 65.505 52.0154 65.2649 51.9978C64.7855 51.9627 64.4873 51.9708 64.4866 51.9525C64.5549 51.9327 64.6253 51.9234 64.6959 51.9247C64.8306 51.9159 65.0269 51.9093 65.2682 51.9181C65.5526 51.9277 65.8364 51.9538 66.1185 51.9964C66.2767 52.0205 66.4455 52.0498 66.6136 52.0893L67.1348 52.2071Z" fill="#C8935F"/>
<path d="M44.832 52.2071C45.4465 52.3419 46.0666 52.442 46.6901 52.5071C46.9295 52.5327 47.1238 52.5495 47.2578 52.5619C47.3282 52.5625 47.3983 52.5726 47.4665 52.5919C47.3973 52.6066 47.3268 52.6113 47.2565 52.6058C47.1211 52.6058 46.9262 52.6015 46.6849 52.5861C46.0562 52.544 45.4308 52.454 44.813 52.3168L44.2898 52.1983C44.1204 52.1573 43.9569 52.1251 43.7999 52.0995C43.4866 52.0469 43.2021 52.0154 42.9621 51.9978C42.4827 51.9627 42.1844 51.9708 42.1838 51.9525C42.2521 51.9327 42.3225 51.9234 42.3931 51.9247C42.5278 51.9159 42.724 51.9093 42.9654 51.9181C43.2498 51.9277 43.5336 51.9538 43.8156 51.9964C43.9739 52.0205 44.1426 52.0498 44.3107 52.0893L44.832 52.2071Z" fill="#C8935F"/>
<path d="M22.5291 52.2071C23.1436 52.3419 23.7638 52.442 24.3873 52.5071C24.6267 52.5327 24.8209 52.5495 24.955 52.5619C25.0254 52.5625 25.0954 52.5726 25.1636 52.5919C25.0945 52.6066 25.0239 52.6113 24.9537 52.6058C24.8183 52.6058 24.6234 52.6015 24.382 52.5861C23.7533 52.544 23.1279 52.454 22.5102 52.3168L21.9869 52.1983C21.8175 52.1573 21.654 52.1251 21.4971 52.0995C21.1838 52.0469 20.8993 52.0154 20.6592 51.9978C20.1798 51.9627 19.8816 51.9708 19.8809 51.9525C19.9493 51.9327 20.0197 51.9234 20.0902 51.9247C20.2249 51.9159 20.4212 51.9093 20.6625 51.9181C20.9469 51.9277 21.2307 51.9538 21.5128 51.9964C21.671 52.0205 21.8398 52.0498 22.0079 52.0893L22.5291 52.2071Z" fill="#C8935F"/>
<path d="M79.627 52.2071C80.2415 52.3419 80.8617 52.442 81.4852 52.5071C81.7246 52.5327 81.9188 52.5495 82.0529 52.5619C82.1233 52.5625 82.1933 52.5726 82.2615 52.5919C82.1924 52.6066 82.1218 52.6113 82.0516 52.6058C81.9162 52.6058 81.7213 52.6015 81.48 52.5861C80.8513 52.544 80.2258 52.454 79.6081 52.3168L79.0848 52.1983C78.9155 52.1573 78.7519 52.1251 78.595 52.0995C78.2817 52.0469 77.9972 52.0154 77.7571 51.9978C77.2777 51.9627 76.9795 51.9708 76.9788 51.9525C77.0472 51.9327 77.1176 51.9234 77.1881 51.9247C77.3229 51.9159 77.5191 51.9093 77.7604 51.9181C78.0449 51.9277 78.3287 51.9538 78.6107 51.9964C78.7689 52.0205 78.9377 52.0498 79.1058 52.0893L79.627 52.2071Z" fill="#C8935F"/>
<path d="M92.9695 52.2071C93.584 52.3419 94.2042 52.442 94.8277 52.5071C95.067 52.5327 95.2613 52.5495 95.3954 52.5619C95.4657 52.5625 95.5358 52.5726 95.604 52.5919C95.5348 52.6066 95.4643 52.6113 95.3941 52.6058C95.2587 52.6058 95.0638 52.6015 94.8224 52.5861C94.1937 52.544 93.5683 52.454 92.9506 52.3168L92.4273 52.1983C92.2579 52.1573 92.0944 52.1251 91.9374 52.0995C91.6242 52.0469 91.3396 52.0154 91.0996 51.9978C90.6202 51.9627 90.322 51.9708 90.3213 51.9525C90.3896 51.9327 90.46 51.9234 90.5306 51.9247C90.6653 51.9159 90.8615 51.9093 91.1029 51.9181C91.3873 51.9277 91.6711 51.9538 91.9531 51.9964C92.1114 52.0205 92.2802 52.0498 92.4482 52.0893L92.9695 52.2071Z" fill="#C8935F"/>
<path d="M84.2688 51.9689C85.3057 52.084 86.3472 52.1404 87.3892 52.1382C87.7895 52.1382 88.1139 52.1316 88.3376 52.1286C88.5613 52.1257 88.6862 52.1286 88.6869 52.1411C88.6875 52.1536 88.5645 52.1755 88.3409 52.2012C88.1172 52.2268 87.7928 52.2532 87.3912 52.2701C86.3436 52.3116 85.2947 52.2732 84.2518 52.155L83.3643 52.051C83.0771 52.0136 82.8018 51.9902 82.5382 51.9777C82.011 51.9455 81.5356 51.9447 81.1359 51.9572C80.3367 51.9836 79.8435 52.0495 79.8403 52.0202C79.8403 52.0085 79.96 51.9755 80.1823 51.9374C80.4047 51.8993 80.7278 51.8539 81.13 51.8253C81.601 51.7914 82.0732 51.7847 82.5447 51.8055C82.8109 51.8173 83.0909 51.837 83.378 51.8722L84.2688 51.9689Z" fill="#C8935F"/>
<path d="M72.4306 51.9689C73.4676 52.084 74.509 52.1404 75.5511 52.1382C75.9513 52.1382 76.2757 52.1316 76.4994 52.1286C76.7231 52.1257 76.848 52.1286 76.8487 52.1411C76.8493 52.1536 76.7264 52.1755 76.5027 52.2012C76.279 52.2268 75.9546 52.2532 75.553 52.2701C74.5054 52.3116 73.4565 52.2732 72.4136 52.155L71.5261 52.051C71.239 52.0136 70.9636 51.9902 70.7 51.9777C70.1729 51.9455 69.6974 51.9447 69.2978 51.9572C68.4985 51.9836 68.0054 52.0495 68.0021 52.0202C68.0021 52.0085 68.1218 51.9755 68.3442 51.9374C68.5665 51.8993 68.8896 51.8539 69.2919 51.8253C69.7628 51.7914 70.235 51.7847 70.7066 51.8055C70.9728 51.8173 71.2527 51.837 71.5398 51.8722L72.4306 51.9689Z" fill="#C8935F"/>
<path d="M100.227 51.9689C101.264 52.084 102.306 52.1404 103.348 52.1382C103.748 52.1382 104.073 52.1316 104.296 52.1286C104.52 52.1257 104.645 52.1286 104.645 52.1411C104.646 52.1536 104.523 52.1755 104.299 52.2012C104.076 52.2268 103.751 52.2532 103.35 52.2701C102.302 52.3116 101.253 52.2732 100.21 52.155L99.3229 52.051C99.0358 52.0136 98.7604 51.9902 98.4968 51.9777C97.9697 51.9455 97.4942 51.9447 97.0946 51.9572C96.2953 51.9836 95.8022 52.0495 95.7989 52.0202C95.7989 52.0085 95.9186 51.9755 96.141 51.9374C96.3633 51.8993 96.6864 51.8539 97.0887 51.8253C97.5596 51.7914 98.0318 51.7847 98.5034 51.8055C98.7696 51.8173 99.0495 51.837 99.3366 51.8722L100.227 51.9689Z" fill="#C8935F"/>
<path d="M49.5391 51.9689C50.5761 52.084 51.6176 52.1404 52.6596 52.1382C53.0598 52.1382 53.3843 52.1316 53.6079 52.1286C53.8316 52.1257 53.9565 52.1286 53.9572 52.1411C53.9578 52.1536 53.8349 52.1755 53.6112 52.2012C53.3875 52.2268 53.0631 52.2532 52.6615 52.2701C51.6139 52.3116 50.565 52.2732 49.5221 52.155L48.6346 52.051C48.3475 52.0136 48.0721 51.9902 47.8085 51.9777C47.2814 51.9455 46.8059 51.9447 46.4063 51.9572C45.607 51.9836 45.1139 52.0495 45.1106 52.0202C45.1106 52.0085 45.2303 51.9755 45.4527 51.9374C45.6751 51.8993 45.9981 51.8539 46.4004 51.8253C46.8713 51.7914 47.3435 51.7847 47.8151 51.8055C48.0813 51.8173 48.3612 51.837 48.6483 51.8722L49.5391 51.9689Z" fill="#C8935F"/>
<path d="M27.8903 51.9689C28.9273 52.084 29.9687 52.1404 31.0108 52.1382C31.411 52.1382 31.7354 52.1316 31.9591 52.1286C32.1828 52.1257 32.3077 52.1286 32.3084 52.1411C32.309 52.1536 32.1861 52.1755 31.9624 52.2012C31.7387 52.2268 31.4143 52.2532 31.0127 52.2701C29.9651 52.3116 28.9162 52.2732 27.8733 52.155L26.9858 52.051C26.6987 52.0136 26.4233 51.9902 26.1597 51.9777C25.6326 51.9455 25.1571 51.9447 24.7575 51.9572C23.9582 51.9836 23.4651 52.0495 23.4618 52.0202C23.4618 52.0085 23.5815 51.9755 23.8039 51.9374C24.0262 51.8993 24.3493 51.8539 24.7516 51.8253C25.2225 51.7914 25.6947 51.7847 26.1663 51.8055C26.4325 51.8173 26.7124 51.837 26.9995 51.8722L27.8903 51.9689Z" fill="#C8935F"/>
<g opacity="0.2">
<path d="M15.5662 37.7026C15.7219 37.2886 15.8416 36.898 15.852 36.5322C15.8572 36.2042 15.802 35.8786 15.6898 35.5755C15.5976 35.3055 15.5028 35.0898 15.4446 34.9354C15.3864 34.7811 15.3602 34.6896 15.3792 34.6765C15.3981 34.6633 15.4609 34.7284 15.5551 34.8608C15.6881 35.0506 15.805 35.2539 15.9044 35.4679C15.9748 35.6198 16.0328 35.7784 16.0777 35.9419C16.1301 36.1353 16.1574 36.336 16.1588 36.5381C16.1584 36.7606 16.1313 36.982 16.0783 37.1964C16.0232 37.417 15.955 37.6333 15.8743 37.8438C15.7958 38.0566 15.7153 38.2585 15.646 38.4531C15.6113 38.5504 15.5806 38.6455 15.5518 38.7391L15.5159 38.8744L15.4877 39.0097C15.4283 39.3282 15.4346 39.6577 15.506 39.9731C15.5366 40.0906 15.5805 40.2032 15.6369 40.3081C15.6643 40.3513 15.6898 40.3937 15.7166 40.4288C15.7435 40.4639 15.769 40.4968 15.7958 40.5217C15.8226 40.5466 15.8455 40.57 15.8664 40.5912C15.8874 40.6124 15.9076 40.6241 15.9227 40.6387C15.9528 40.6665 15.9685 40.6878 15.9645 40.7002C15.9606 40.7126 15.9377 40.7148 15.8991 40.7082C15.8733 40.7038 15.8477 40.6974 15.8226 40.6892C15.7945 40.6768 15.7618 40.6607 15.7245 40.6409C15.6849 40.6167 15.6468 40.5893 15.6107 40.559C15.5688 40.5209 15.5292 40.4796 15.4923 40.4354C15.4065 40.3235 15.3372 40.1971 15.2869 40.0609C15.1681 39.7072 15.1341 39.3249 15.1882 38.952C15.1954 38.9 15.2052 38.8474 15.2143 38.794C15.2235 38.7406 15.2385 38.6879 15.251 38.6338C15.2789 38.5299 15.3098 38.4263 15.3438 38.3229C15.4125 38.1159 15.4917 37.9103 15.5662 37.7026Z" fill="#202020"/>
<path d="M16.6186 38.8495C16.6794 38.5774 16.7553 38.3375 16.8096 38.118C16.8593 37.9291 16.8947 37.7358 16.9155 37.5402C16.9489 37.2103 16.8965 37.0011 16.9423 36.9791C16.9619 36.9696 17.0077 37.0106 17.0496 37.1057C17.1089 37.2431 17.1435 37.3922 17.1516 37.5446C17.1647 37.7651 17.1504 37.9867 17.1091 38.2029C17.0672 38.4428 16.9999 38.6915 16.943 38.9453C16.8865 39.1729 16.8568 39.4077 16.8547 39.6439C16.8578 39.8294 16.8931 40.0125 16.9587 40.183C17.0725 40.4756 17.2465 40.5838 17.2249 40.6358C17.2203 40.6475 17.2046 40.6526 17.1778 40.6511C17.1398 40.6477 17.1026 40.6368 17.0679 40.619C16.9402 40.5517 16.8316 40.4465 16.754 40.3147C16.6378 40.1213 16.5668 39.8985 16.5473 39.6666C16.5287 39.3917 16.5528 39.1152 16.6186 38.8495Z" fill="#202020"/>
<path d="M14.6833 39.7053C14.7754 39.7053 14.85 39.689 14.85 39.6688C14.85 39.6486 14.7754 39.6322 14.6833 39.6322C14.5912 39.6322 14.5165 39.6486 14.5165 39.6688C14.5165 39.689 14.5912 39.7053 14.6833 39.7053Z" fill="#202020"/>
<path d="M14.6015 36.7531C14.6352 36.4205 14.6439 36.0853 14.6277 35.751C14.614 35.4817 14.5723 35.2151 14.5034 34.9566C14.3831 34.5177 14.2137 34.2822 14.2542 34.2427C14.2699 34.2266 14.3333 34.2646 14.4243 34.3641C14.5495 34.5091 14.6511 34.6774 14.7245 34.8615C14.8339 35.1331 14.9047 35.4221 14.9344 35.7181C14.9707 36.0751 14.9707 36.4356 14.9344 36.7926C14.8978 37.1671 14.8415 37.5146 14.7925 37.8277C14.7434 38.1407 14.7016 38.4194 14.6761 38.6542C14.6211 39.1238 14.6244 39.4208 14.576 39.4281C14.5276 39.4355 14.4452 39.1355 14.4406 38.6396C14.4401 38.3518 14.4561 38.0642 14.4884 37.7787C14.5197 37.4583 14.5668 37.1123 14.6015 36.7531Z" fill="#202020"/>
</g>
<path d="M103.569 29.1371C103.544 29.1371 103.52 29.131 103.498 29.1192C103.476 29.1075 103.457 29.0903 103.441 29.069L102.511 27.7831L100.717 28.8649C100.698 28.8772 100.677 28.8851 100.656 28.8881C100.634 28.8911 100.612 28.8893 100.591 28.8826C100.57 28.8759 100.55 28.8646 100.533 28.8493C100.516 28.8339 100.502 28.8149 100.491 28.7934C100.481 28.7718 100.475 28.7482 100.473 28.7238C100.471 28.6994 100.473 28.6748 100.48 28.6515C100.486 28.6281 100.497 28.6065 100.511 28.5879C100.525 28.5693 100.543 28.554 100.562 28.5431L102.595 27.3164L103.696 28.8393C103.715 28.8662 103.727 28.8986 103.731 28.9328C103.735 28.9671 103.729 29.0017 103.716 29.0329C103.703 29.064 103.682 29.0903 103.656 29.1087C103.63 29.1272 103.6 29.137 103.569 29.1371Z" fill="#9EBAB7"/>
<path d="M103.413 27.7581C103.389 27.7582 103.365 27.7521 103.343 27.7403C103.321 27.7286 103.301 27.7114 103.286 27.6901L102.358 26.4027L100.564 27.4846C100.545 27.4968 100.524 27.5047 100.502 27.5077C100.48 27.5108 100.458 27.5089 100.437 27.5022C100.416 27.4956 100.396 27.4842 100.379 27.4689C100.362 27.4536 100.348 27.4346 100.338 27.413C100.327 27.3914 100.321 27.3678 100.319 27.3434C100.317 27.319 100.319 27.2944 100.326 27.2711C100.332 27.2478 100.343 27.2261 100.357 27.2075C100.372 27.1889 100.389 27.1737 100.409 27.1627L102.441 25.936L103.542 27.459C103.561 27.4858 103.574 27.5182 103.577 27.5524C103.581 27.5867 103.576 27.6214 103.562 27.6525C103.549 27.6836 103.528 27.7099 103.502 27.7284C103.476 27.7468 103.446 27.7566 103.415 27.7567L103.413 27.7581Z" fill="#9EBAB7"/>
<path d="M103.258 26.3794C103.234 26.3794 103.21 26.3733 103.188 26.3616C103.166 26.3498 103.146 26.3326 103.131 26.3113L102.201 25.0239L100.407 26.1058C100.388 26.118 100.367 26.1259 100.345 26.129C100.323 26.132 100.301 26.1301 100.28 26.1234C100.259 26.1168 100.239 26.1054 100.222 26.0901C100.205 26.0748 100.191 26.0558 100.181 26.0342C100.17 26.0127 100.164 25.989 100.162 25.9646C100.16 25.9402 100.162 25.9157 100.169 25.8923C100.175 25.869 100.186 25.8474 100.2 25.8287C100.215 25.8101 100.232 25.7949 100.252 25.7839L102.284 24.5573L103.385 26.0802C103.405 26.107 103.417 26.1394 103.42 26.1737C103.424 26.2079 103.419 26.2426 103.406 26.2737C103.392 26.3048 103.371 26.3311 103.345 26.3496C103.319 26.368 103.289 26.3778 103.258 26.3779V26.3794Z" fill="#9EBAB7"/>
<path d="M94.6229 28.734C94.59 28.734 94.5578 28.7227 94.5307 28.7018L92.8479 27.4152L91.8014 28.5855C91.7863 28.603 91.7683 28.617 91.7484 28.6266C91.7284 28.6362 91.707 28.6413 91.6853 28.6415C91.6636 28.6418 91.642 28.6372 91.6219 28.628C91.6018 28.6188 91.5835 28.6053 91.5682 28.5881C91.5528 28.571 91.5406 28.5506 91.5324 28.5281C91.5241 28.5057 91.52 28.4816 91.5201 28.4573C91.5203 28.4331 91.5248 28.4091 91.5333 28.3867C91.5418 28.3644 91.5543 28.3442 91.5699 28.3273L92.8086 26.9397L94.7152 28.3975C94.7439 28.4196 94.7655 28.4514 94.777 28.4882C94.7884 28.525 94.789 28.565 94.7787 28.6022C94.7684 28.6395 94.7478 28.6721 94.7197 28.6952C94.6917 28.7184 94.6578 28.731 94.6229 28.7311V28.734Z" fill="#9EBAB7"/>
<path d="M94.9061 27.3785C94.8732 27.3785 94.841 27.3673 94.8139 27.3464L93.1311 26.0597L92.0846 27.2301C92.0695 27.2475 92.0515 27.2615 92.0316 27.2711C92.0116 27.2807 91.9902 27.2858 91.9685 27.2861C91.9468 27.2863 91.9252 27.2817 91.9051 27.2725C91.885 27.2634 91.8667 27.2498 91.8514 27.2327C91.836 27.2155 91.8238 27.1951 91.8156 27.1727C91.8073 27.1502 91.8032 27.1262 91.8033 27.1019C91.8035 27.0776 91.808 27.0536 91.8165 27.0313C91.825 27.0089 91.8375 26.9887 91.8531 26.9718L93.0918 25.5886L94.9984 27.0465C95.0271 27.0685 95.0487 27.1003 95.0602 27.1371C95.0716 27.174 95.0722 27.2139 95.0619 27.2512C95.0516 27.2884 95.031 27.321 95.0029 27.3442C94.9749 27.3674 94.941 27.3799 94.9061 27.38V27.3785Z" fill="#9EBAB7"/>
<path d="M95.19 26.0275C95.157 26.0274 95.1249 26.0162 95.0978 25.9953L93.4149 24.7086L92.3685 25.879C92.3534 25.8965 92.3354 25.9104 92.3154 25.92C92.2955 25.9297 92.274 25.9347 92.2523 25.935C92.2306 25.9352 92.2091 25.9306 92.189 25.9215C92.1689 25.9123 92.1506 25.8988 92.1352 25.8816C92.1199 25.8645 92.1077 25.8441 92.0994 25.8216C92.0912 25.7991 92.087 25.7751 92.0872 25.7508C92.0873 25.7265 92.0918 25.7025 92.1004 25.6802C92.1089 25.6579 92.1213 25.6377 92.1369 25.6208L93.3744 24.2346L95.2809 25.6925C95.3096 25.7145 95.3313 25.7463 95.3427 25.7831C95.3542 25.82 95.3548 25.8599 95.3445 25.8972C95.3342 25.9344 95.3135 25.967 95.2855 25.9902C95.2575 26.0133 95.2235 26.0259 95.1887 26.026L95.19 26.0275Z" fill="#9EBAB7"/>
<path d="M99.022 33.3064C99.022 33.9318 98.4393 34.4387 97.7211 34.4387C97.003 34.4387 96.4202 33.9318 96.4202 33.3064C96.4202 32.681 97.003 31.5128 97.7211 31.5128C98.4393 31.5128 99.022 32.6839 99.022 33.3064Z" fill="#9EBAB7"/>
<g opacity="0.2">
<path d="M97.6812 26.3559C97.6118 26.3559 97.5453 26.3251 97.4962 26.2703C97.4472 26.2154 97.4196 26.141 97.4196 26.0634V12.7505C97.4196 12.6729 97.4472 12.5985 97.4962 12.5436C97.5453 12.4887 97.6118 12.4579 97.6812 12.4579C97.7506 12.4579 97.8172 12.4887 97.8662 12.5436C97.9153 12.5985 97.9429 12.6729 97.9429 12.7505V26.0634C97.9429 26.141 97.9153 26.2154 97.8662 26.2703C97.8172 26.3251 97.7506 26.3559 97.6812 26.3559Z" fill="#9EBAB7"/>
</g>
<path d="M101.136 27.9081C101.136 29.2526 99.5891 30.3425 97.6812 30.3425C95.7734 30.3425 94.2266 29.2526 94.2266 27.9081C94.2266 26.5637 95.7734 24.0525 97.6812 24.0525C99.5891 24.0525 101.136 26.5637 101.136 27.9081Z" fill="#ECF3F2"/>
<path opacity="0.2" d="M101.136 27.9081C101.136 29.2526 99.5891 30.3425 97.6812 30.3425C97.5888 30.3425 97.497 30.34 97.4059 30.3351C99.1849 30.2364 100.585 29.1875 100.585 27.9081C100.585 26.6288 99.1849 24.2924 97.4059 24.0693C97.4973 24.0576 97.5892 24.0518 97.6812 24.0518C99.5891 24.0525 101.136 26.5637 101.136 27.9081Z" fill="#9EBAB7"/>
<path d="M100.639 30.8289C100.651 31.9546 99.3647 32.8829 97.7676 32.9019C96.1704 32.9209 94.8669 32.0241 94.8558 30.8991C94.8447 29.7741 96.1194 27.6557 97.7139 27.6367C99.3085 27.6177 100.629 29.7039 100.639 30.8289Z" fill="#ECF3F2"/>
<path opacity="0.2" d="M100.265 29.5547C100.227 29.5832 100.189 29.3915 100.15 29.4193C99.6303 28.5291 98.7506 27.9286 97.7532 27.9286C96.744 27.9286 95.8565 28.5489 95.3378 29.4515C95.2986 29.4252 95.2606 29.6176 95.2234 29.5905C95.7172 28.6125 96.6622 27.636 97.7532 27.636C98.8258 27.6367 99.7644 28.5876 100.265 29.5547Z" fill="#9EBAB7"/>
<path d="M96.4386 32.0249C97.0165 32.0249 97.485 31.5009 97.485 30.8546C97.485 30.2082 97.0165 29.6842 96.4386 29.6842C95.8606 29.6842 95.3921 30.2082 95.3921 30.8546C95.3921 31.5009 95.8606 32.0249 96.4386 32.0249Z" fill="white"/>
<path d="M98.9893 32.0249C99.5673 32.0249 100.036 31.5009 100.036 30.8546C100.036 30.2082 99.5673 29.6842 98.9893 29.6842C98.4114 29.6842 97.9429 30.2082 97.9429 30.8546C97.9429 31.5009 98.4114 32.0249 98.9893 32.0249Z" fill="white"/>
<path d="M98.4661 31.4397C98.7551 31.4397 98.9893 31.1777 98.9893 30.8545C98.9893 30.5313 98.7551 30.2693 98.4661 30.2693C98.1771 30.2693 97.9429 30.5313 97.9429 30.8545C97.9429 31.1777 98.1771 31.4397 98.4661 31.4397Z" fill="#66706F"/>
<path d="M98.8258 30.8545C99.0064 30.8545 99.1528 30.6908 99.1528 30.4888C99.1528 30.2868 99.0064 30.123 98.8258 30.123C98.6452 30.123 98.4988 30.2868 98.4988 30.4888C98.4988 30.6908 98.6452 30.8545 98.8258 30.8545Z" fill="white"/>
<path d="M96.275 30.8545C96.4557 30.8545 96.6021 30.6908 96.6021 30.4888C96.6021 30.2868 96.4557 30.123 96.275 30.123C96.0944 30.123 95.948 30.2868 95.948 30.4888C95.948 30.6908 96.0944 30.8545 96.275 30.8545Z" fill="white"/>
<path d="M95.9153 31.4397C96.2043 31.4397 96.4386 31.1777 96.4386 30.8545C96.4386 30.5313 96.2043 30.2693 95.9153 30.2693C95.6263 30.2693 95.3921 30.5313 95.3921 30.8545C95.3921 31.1777 95.6263 31.4397 95.9153 31.4397Z" fill="#66706F"/>
<path d="M95.2129 26.0275C95.3172 25.856 95.4486 25.7072 95.6007 25.5886C95.7204 25.4993 95.8133 25.473 95.8434 25.511C95.9042 25.5915 95.7073 25.8841 95.4882 26.2425C95.2691 26.6009 95.0912 26.9082 95.0023 26.873C94.9598 26.8548 94.9493 26.7487 94.9813 26.5922C95.0269 26.3896 95.1054 26.1982 95.2129 26.0275Z" fill="white"/>
<path d="M96.4104 24.8572C96.5212 24.7978 96.6437 24.7711 96.7662 24.7796C96.8617 24.7906 96.9212 24.8301 96.9271 24.8806C96.933 24.9311 96.8879 24.9852 96.8186 25.0372C96.6447 25.155 96.4595 25.2505 96.2665 25.3218C96.1861 25.3467 96.1207 25.3511 96.09 25.3123C96.0592 25.2735 96.071 25.1981 96.1259 25.1096C96.1999 24.9996 96.2979 24.9127 96.4104 24.8572Z" fill="white"/>
<path d="M96.275 30.8545C96.4557 30.8545 96.6021 30.6908 96.6021 30.4888C96.6021 30.2868 96.4557 30.123 96.275 30.123C96.0944 30.123 95.948 30.2868 95.948 30.4888C95.948 30.6908 96.0944 30.8545 96.275 30.8545Z" fill="white"/>
<g opacity="0.2">
<path d="M102.189 43.4418H96.1717V50.1714H102.189V43.4418Z" fill="#98E2CA"/>
<path d="M100.914 46.8066C100.914 45.736 100.138 44.8682 99.1803 44.8682C98.2231 44.8682 97.4471 45.736 97.4471 46.8066C97.4471 47.8771 98.2231 48.745 99.1803 48.745C100.138 48.745 100.914 47.8771 100.914 46.8066Z" fill="white"/>
<path d="M98.9841 46.5082C98.9841 46.3466 98.867 46.2156 98.7225 46.2156C98.578 46.2156 98.4609 46.3466 98.4609 46.5082V47.1058C98.4609 47.2674 98.578 47.3984 98.7225 47.3984C98.867 47.3984 98.9841 47.2674 98.9841 47.1058V46.5082Z" fill="#9EBAB7"/>
<path d="M99.8998 46.5082C99.8998 46.3466 99.7826 46.2156 99.6381 46.2156C99.4936 46.2156 99.3765 46.3466 99.3765 46.5082V47.1058C99.3765 47.2674 99.4936 47.3984 99.6381 47.3984C99.7826 47.3984 99.8998 47.2674 99.8998 47.1058V46.5082Z" fill="#9EBAB7"/>
</g>
<defs>
<linearGradient id="paint0_linear_8_175" x1="20.5703" y1="30.8911" x2="87.6247" y2="30.8911" gradientUnits="userSpaceOnUse">
<stop stop-color="#C3F6EE"/>
<stop offset="0.38" stop-color="#C6EBFD"/>
</linearGradient>
<linearGradient id="paint1_linear_8_175" x1="4.38208" y1="26.1826" x2="8.95842" y2="26.1826" gradientUnits="userSpaceOnUse">
<stop stop-color="#C3F6EE"/>
<stop offset="0.38" stop-color="#C6EBFD"/>
</linearGradient>
<linearGradient id="paint2_linear_8_175" x1="16.2503" y1="12.9383" x2="30.6935" y2="12.9383" gradientUnits="userSpaceOnUse">
<stop stop-color="#C3F6EE"/>
<stop offset="0.38" stop-color="#C6EBFD"/>
</linearGradient>
<linearGradient id="paint3_linear_8_175" x1="4.31668" y1="47.2761" x2="9.2874" y2="47.2761" gradientUnits="userSpaceOnUse">
<stop stop-color="#C3F6EE"/>
<stop offset="0.38" stop-color="#C6EBFD"/>
</linearGradient>
<linearGradient id="paint4_linear_8_175" x1="0.196213" y1="50.1289" x2="13.4079" y2="50.1289" gradientUnits="userSpaceOnUse">
<stop stop-color="#C3F6EE"/>
<stop offset="0.38" stop-color="#C6EBFD"/>
</linearGradient>
</defs>
</svg>
